<?xml version="1.0" standalone="no"?>
<!DOCTYPE svg PUBLIC "-//W3C//DTD SVG 20010904//EN"
 "http://www.w3.org/TR/2001/REC-SVG-20010904/DTD/svg10.dtd">
<svg version="1.0" xmlns="http://www.w3.org/2000/svg"
 width="638.000000pt" height="638.000000pt" viewBox="0 0 638.000000 638.000000"
 preserveAspectRatio="xMidYMid meet">
<metadata>
Created by potrace 1.16, written by Peter Selinger 2001-2019
</metadata>
<g transform="translate(0.000000,638.000000) scale(0.100000,-0.100000)"
fill="#000000" stroke="none">
<path d="M3900 3913 c0 -20 -67 -173 -80 -183 -4 -3 -19 -30 -34 -60 -15 -30
-29 -57 -31 -59 -2 -2 -16 6 -31 18 -16 12 -41 21 -62 21 -29 0 -44 -8 -81
-47 -26 -27 -66 -86 -90 -133 -43 -83 -123 -180 -148 -180 -7 0 -13 4 -13 9 0
19 30 91 54 129 l26 41 -22 16 c-13 8 -30 15 -39 15 -9 0 -47 -35 -85 -77 -96
-110 -154 -162 -154 -138 0 11 27 64 56 110 73 114 223 222 198 142 -7 -22 -6
-22 15 -3 28 25 27 48 -5 85 -47 56 -118 31 -205 -71 -77 -90 -233 -242 -237
-230 -2 6 17 55 42 110 47 101 54 138 36 173 -26 48 -71 15 -214 -156 -32 -38
-63 -72 -67 -73 -5 -2 11 35 36 82 27 52 45 99 45 119 -1 36 -30 77 -54 77
-10 0 -16 -9 -16 -22 0 -44 -13 -51 -85 -46 -50 3 -69 8 -77 21 -12 22 -60 47
-89 47 -34 0 -119 -94 -158 -175 -37 -77 -53 -184 -32 -223 6 -11 36 -30 67
-42 l57 -21 38 27 c56 39 149 195 149 251 0 29 26 53 56 53 13 0 24 -2 24 -5
0 -3 -16 -40 -36 -81 -20 -43 -38 -98 -41 -129 -5 -48 -3 -56 20 -79 14 -14
32 -23 39 -20 7 3 35 40 63 82 64 98 157 224 162 218 2 -2 -12 -42 -32 -89
-19 -47 -35 -102 -35 -121 0 -41 28 -76 61 -76 22 0 85 57 127 115 l22 30 -6
-42 c-9 -58 1 -88 37 -113 l30 -22 25 23 c14 13 46 52 72 87 l47 65 5 -50 c12
-115 89 -130 160 -31 29 40 30 40 30 14 0 -18 12 -39 35 -62 46 -45 59 -38
132 72 31 46 57 83 59 81 2 -1 -4 -30 -13 -62 -31 -117 -21 -217 28 -285 36
-49 46 -47 25 5 -31 74 -18 154 57 336 43 105 126 271 161 322 70 102 73 137
16 192 -35 34 -40 36 -40 18z m-1360 -373 c27 -27 25 -41 -14 -124 -41 -84
-109 -166 -138 -166 -19 0 -20 4 -14 53 8 56 70 183 114 230 14 15 27 27 29
27 2 0 12 -9 23 -20z"/>
<path d="M2041 3898 c-12 -31 -101 -162 -112 -166 -5 -2 -32 -39 -60 -83 -28
-43 -52 -79 -53 -79 -1 0 0 30 2 68 4 79 -15 117 -76 156 -53 33 -104 46 -187
46 -156 0 -304 -70 -344 -162 -42 -94 -18 -191 54 -228 33 -16 203 -17 246 -2
20 8 17 10 -22 16 -124 19 -249 91 -249 143 0 59 88 108 220 125 84 10 218 6
253 -7 40 -16 30 -125 -23 -242 -34 -75 -143 -233 -193 -282 -41 -39 -62 -36
-72 9 -6 27 -9 30 -20 19 -21 -22 -26 -62 -10 -83 8 -11 31 -20 59 -23 38 -5
53 -1 85 20 80 53 130 116 300 375 40 62 77 114 81 117 4 3 -12 -47 -37 -111
-70 -183 -68 -240 7 -279 29 -15 31 -15 39 8 25 66 176 272 251 342 l32 30
-41 -75 c-62 -116 -93 -220 -93 -314 0 -85 11 -109 65 -150 23 -17 30 -18 54
-7 l27 12 -25 12 c-64 32 -43 183 50 362 62 119 138 240 175 280 33 36 40 81
18 119 -10 17 -25 32 -34 34 -9 2 -38 -24 -69 -59 -95 -111 -339 -354 -339
-340 0 17 90 224 101 231 4 3 15 29 24 57 16 49 16 55 1 78 -9 13 -30 32 -46
40 -29 15 -31 15 -39 -7z"/>
<path d="M4043 3630 c-67 -40 -163 -160 -205 -253 -18 -39 -24 -111 -12 -142
8 -20 61 -48 79 -41 7 2 39 40 71 82 l59 78 5 -51 c9 -85 57 -117 113 -73 25
20 118 141 130 170 4 8 14 26 24 40 l17 25 -30 -27 c-16 -14 -58 -54 -94 -88
-59 -56 -65 -59 -68 -39 -2 12 13 54 33 93 34 66 36 71 19 83 -35 25 -69 16
-107 -30 -71 -87 -154 -170 -165 -166 -14 5 47 109 93 160 57 62 115 109 136
109 18 0 19 -2 9 -15 -17 -20 -4 -32 18 -19 27 18 27 68 -1 98 -30 32 -78 34
-124 6z"/>
<path d="M4633 3624 c-59 -39 -93 -96 -93 -158 0 -40 8 -63 40 -117 44 -74 49
-99 22 -99 -22 0 -91 48 -112 79 -33 48 -42 3 -11 -57 23 -46 46 -67 94 -87
41 -17 61 -11 105 28 31 28 28 70 -9 166 -37 92 -33 114 27 172 38 37 41 31
20 -49 -7 -29 -11 -52 -9 -52 14 0 55 37 72 66 29 48 26 65 -12 102 -41 40
-78 41 -134 6z"/>
<path d="M2481 2821 c-12 -22 -97 -319 -106 -374 -4 -21 -17 -52 -29 -70 -37
-55 -40 -63 -16 -42 l22 20 -8 -35 c-4 -19 -8 -48 -8 -65 -1 -25 3 -29 19 -27
11 2 21 8 23 13 2 5 12 19 23 31 19 23 19 23 34 3 44 -58 44 -58 105 -52 31 3
79 15 106 28 62 29 62 29 77 -1 19 -38 53 -38 75 0 16 28 20 30 57 25 l40 -6
-31 15 c-24 10 -34 23 -40 51 -17 69 -78 63 -109 -11 -18 -43 -79 -73 -147
-74 -55 0 -88 24 -88 64 0 49 -39 42 -75 -13 -11 -17 -24 -31 -29 -31 -17 0 4
114 28 150 68 103 116 256 116 373 0 50 -20 65 -39 28z"/>
<path d="M2155 2821 c-48 -12 -142 -62 -184 -98 -131 -111 -135 -248 -10 -305
27 -13 49 -25 49 -28 0 -3 -14 -14 -30 -23 -23 -14 -41 -17 -75 -11 -34 5 -51
2 -70 -10 -26 -17 -33 -54 -15 -72 7 -7 -11 -25 -55 -57 -89 -64 -83 -78 8
-16 69 47 74 49 106 38 18 -7 54 -9 82 -6 33 4 61 1 86 -10 64 -26 151 -3 228
62 42 35 26 31 -35 -9 -29 -19 -70 -38 -91 -41 -63 -11 -110 15 -53 29 14 4
37 18 50 31 20 20 22 28 13 47 -5 13 -23 31 -40 40 -16 9 -29 21 -29 26 0 5
28 35 61 67 149 143 223 291 171 338 -20 18 -109 22 -167 8z m147 -13 c37 -30
26 -81 -40 -182 -46 -70 -151 -184 -189 -204 -28 -15 -121 42 -147 89 -18 33
-18 40 -6 85 10 34 28 63 59 94 94 93 272 158 323 118z"/>
<path d="M3497 2592 c-13 -20 -34 -64 -47 -97 -33 -82 -142 -211 -214 -252
-29 -17 -98 -16 -122 2 -17 14 -16 14 23 9 51 -8 73 6 73 45 0 88 -85 94 -157
11 -12 -14 -24 -22 -27 -19 -8 7 39 97 65 125 21 22 63 120 74 172 5 24 3 32
-8 32 -22 0 -44 -31 -79 -111 -38 -85 -109 -184 -153 -211 -16 -10 -24 -18
-17 -18 7 0 35 21 62 46 28 26 50 44 50 42 0 -3 -38 -109 -84 -234 -94 -255
-95 -258 -81 -262 5 -2 21 32 36 75 30 91 95 243 122 291 18 31 47 44 47 21 0
-37 83 -64 149 -47 36 9 61 27 119 85 41 40 71 65 67 55 -11 -26 -91 -242
-137 -370 -22 -62 -38 -115 -35 -118 13 -13 27 10 53 89 36 108 108 274 130
298 20 22 34 25 34 6 0 -21 58 -49 104 -49 48 0 86 17 135 58 28 23 31 24 31
7 0 -38 24 -56 62 -49 36 7 124 63 115 73 -3 3 -21 -7 -40 -21 -68 -52 -119
-18 -82 54 9 17 14 34 11 37 -10 10 -45 -9 -62 -34 -39 -61 -104 -102 -159
-102 -41 0 -95 22 -78 32 5 3 15 2 23 -4 21 -13 64 -11 78 3 33 33 -3 108 -50
108 -27 0 -73 -29 -94 -59 -8 -11 -19 -21 -25 -21 -12 0 22 68 66 132 30 43
75 154 75 184 0 6 -7 14 -15 18 -10 3 -23 -7 -38 -32z"/>
<path d="M4187 2462 c-21 -23 -21 -52 -1 -100 l15 -37 -40 -37 c-51 -48 -79
-50 -83 -5 -4 44 -35 47 -92 9 -53 -36 -65 -31 -31 14 31 40 31 51 3 60 -31
10 -66 -37 -64 -85 1 -46 25 -51 80 -17 l40 24 15 -32 c26 -51 75 -48 131 8
19 20 38 36 43 36 4 0 7 -15 7 -34 0 -30 -6 -38 -49 -66 -94 -60 -181 -181
-181 -252 0 -39 32 -68 75 -68 79 0 179 149 192 285 6 64 7 67 49 97 58 41 57
58 -1 18 l-44 -30 -7 36 c-4 24 -1 53 11 88 24 69 15 106 -24 106 -15 0 -35
-8 -44 -18z m28 -304 c-12 -87 -43 -156 -94 -209 -53 -55 -82 -62 -106 -25
-34 51 26 165 127 241 33 25 64 45 70 45 6 0 7 -20 3 -52z"/>
</g>
</svg>
